<svg width="1200" height="720" viewBox="0 0 1200 720" fill="none" xmlns="http://www.w3.org/2000/svg">
  <rect width="1200" height="720" rx="28" fill="#FAF6EF"/>
  <rect x="48" y="48" width="1104" height="624" rx="24" fill="#FFFDF9" stroke="#E9DFD0" stroke-width="2"/>
  <rect x="92" y="94" width="240" height="120" rx="20" fill="#F3E7D5"/>
  <rect x="480" y="94" width="240" height="120" rx="20" fill="#F8F0E4"/>
  <rect x="868" y="94" width="240" height="120" rx="20" fill="#F3E7D5"/>
  <rect x="92" y="300" width="1016" height="132" rx="20" fill="#FFF8EE" stroke="#E9DFD0" stroke-width="2"/>
  <rect x="92" y="518" width="308" height="100" rx="20" fill="#F8F0E4"/>
  <rect x="446" y="518" width="308" height="100" rx="20" fill="#F8F0E4"/>
  <rect x="800" y="518" width="308" height="100" rx="20" fill="#F8F0E4"/>
  <path d="M332 154H480" stroke="#B88B4A" stroke-width="6" stroke-linecap="round"/>
  <path d="M720 154H868" stroke="#B88B4A" stroke-width="6" stroke-linecap="round"/>
  <path d="M600 214V270" stroke="#B88B4A" stroke-width="6" stroke-linecap="round"/>
  <path d="M246 432V488" stroke="#B88B4A" stroke-width="6" stroke-linecap="round"/>
  <path d="M600 432V488" stroke="#B88B4A" stroke-width="6" stroke-linecap="round"/>
  <path d="M954 432V488" stroke="#B88B4A" stroke-width="6" stroke-linecap="round"/>
  <circle cx="480" cy="154" r="8" fill="#B88B4A"/>
  <circle cx="720" cy="154" r="8" fill="#B88B4A"/>
  <circle cx="600" cy="270" r="8" fill="#B88B4A"/>
  <circle cx="246" cy="488" r="8" fill="#B88B4A"/>
  <circle cx="600" cy="488" r="8" fill="#B88B4A"/>
  <circle cx="954" cy="488" r="8" fill="#B88B4A"/>
  <text x="212" y="144" text-anchor="middle" fill="#2A241C" font-size="34" font-family="PingFang SC, Microsoft YaHei, sans-serif">输入 / 背景</text>
  <text x="212" y="186" text-anchor="middle" fill="#7E6D57" font-size="22" font-family="PingFang SC, Microsoft YaHei, sans-serif">任务定义与问题设定</text>
  <text x="600" y="144" text-anchor="middle" fill="#2A241C" font-size="34" font-family="PingFang SC, Microsoft YaHei, sans-serif">核心方法</text>
  <text x="600" y="186" text-anchor="middle" fill="#7E6D57" font-size="22" font-family="PingFang SC, Microsoft YaHei, sans-serif">关键模块与信息流</text>
  <text x="988" y="144" text-anchor="middle" fill="#2A241C" font-size="34" font-family="PingFang SC, Microsoft YaHei, sans-serif">输出 / 目标</text>
  <text x="988" y="186" text-anchor="middle" fill="#7E6D57" font-size="22" font-family="PingFang SC, Microsoft YaHei, sans-serif">结果或预测对象</text>
  <text x="600" y="352" text-anchor="middle" fill="#2A241C" font-size="36" font-family="PingFang SC, Microsoft YaHei, sans-serif">把这里替换成你的论文架构图</text>
  <text x="600" y="394" text-anchor="middle" fill="#7E6D57" font-size="24" font-family="PingFang SC, Microsoft YaHei, sans-serif">建议放论文主图、总览流程图，或你自己重绘的结构图</text>
  <text x="246" y="573" text-anchor="middle" fill="#2A241C" font-size="30" font-family="PingFang SC, Microsoft YaHei, sans-serif">模块 A</text>
  <text x="600" y="573" text-anchor="middle" fill="#2A241C" font-size="30" font-family="PingFang SC, Microsoft YaHei, sans-serif">模块 B</text>
  <text x="954" y="573" text-anchor="middle" fill="#2A241C" font-size="30" font-family="PingFang SC, Microsoft YaHei, sans-serif">模块 C</text>
  <text x="246" y="607" text-anchor="middle" fill="#7E6D57" font-size="20" font-family="PingFang SC, Microsoft YaHei, sans-serif">补充说明</text>
  <text x="600" y="607" text-anchor="middle" fill="#7E6D57" font-size="20" font-family="PingFang SC, Microsoft YaHei, sans-serif">补充说明</text>
  <text x="954" y="607" text-anchor="middle" fill="#7E6D57" font-size="20" font-family="PingFang SC, Microsoft YaHei, sans-serif">补充说明</text>
</svg>
